<?xml version="1.0" encoding="UTF-8"?>
<svg version="1.1" xmlns="http://www.w3.org/2000/svg" width="512" height="512">
<path d="M0 0 C1.05338562 -0.00101212 1.05338562 -0.00101212 2.12805176 -0.00204468 C56.60178315 0.0805287 105.84819625 21.59725767 144.8125 59.25 C145.53566406 59.92160156 146.25882812 60.59320313 147.00390625 61.28515625 C153.34670746 67.3204277 158.54719168 74.28439694 163.8125 81.25 C164.23821289 81.80429688 164.66392578 82.35859375 165.10253906 82.9296875 C191.14952796 116.98016869 204.02547999 159.83812987 204.0625 202.4375 C204.06317474 203.13975708 204.06384949 203.84201416 204.06454468 204.56555176 C204.0161775 236.47342383 197.09456736 268.1330451 181.84960938 296.32763672 C180.81176346 298.25136523 179.80408756 300.18899928 178.796875 302.12890625 C169.64465798 319.4068631 157.5186779 334.39273359 143.8125 348.25 C143.24007568 348.83998779 142.66765137 349.42997559 142.07788086 350.0378418 C138.34036692 353.85288679 134.48149363 357.30693832 130.25 360.5625 C129.64559082 361.02978516 129.04118164 361.49707031 128.41845703 361.97851562 C126.55557748 363.41008809 124.68476907 364.8307394 122.8125 366.25 C122.25675293 366.67716309 121.70100586 367.10432617 121.12841797 367.54443359 C87.0548002 393.60672514 44.18547417 406.46306013 1.5625 406.5 C0.50619888 406.50101212 0.50619888 406.50101212 -0.57144165 406.50204468 C-12.97316644 406.48328155 -24.99984038 405.62899369 -37.1875 403.25 C-38.04811035 403.08371094 -38.9087207 402.91742188 -39.79541016 402.74609375 C-58.87069407 398.92183041 -77.28036506 392.50472146 -94.39208984 383.22363281 C-96.12298052 382.28498826 -97.86793376 381.37241886 -99.61328125 380.4609375 C-116.25393779 371.44005103 -130.77535262 359.51591209 -144.1875 346.25 C-144.77748779 345.67757568 -145.36747559 345.10515137 -145.9753418 344.51538086 C-149.79038679 340.77786692 -153.24443832 336.91899363 -156.5 332.6875 C-156.96728516 332.08309082 -157.43457031 331.47868164 -157.91601562 330.85595703 C-159.34758809 328.99307748 -160.7682394 327.12226907 -162.1875 325.25 C-162.61466309 324.69425293 -163.04182617 324.13850586 -163.48193359 323.56591797 C-189.52592566 289.51622479 -202.40048225 246.65926403 -202.4375 204.0625 C-202.43817474 203.36024292 -202.43884949 202.65798584 -202.43954468 201.93444824 C-202.3911775 170.02657617 -195.46956736 138.3669549 -180.22460938 110.17236328 C-179.18676346 108.24863477 -178.17908756 106.31100072 -177.171875 104.37109375 C-168.01965798 87.0931369 -155.8936779 72.10726641 -142.1875 58.25 C-141.61507568 57.66001221 -141.04265137 57.07002441 -140.45288086 56.4621582 C-136.71536692 52.64711321 -132.85649363 49.19306168 -128.625 45.9375 C-128.02059082 45.47021484 -127.41618164 45.00292969 -126.79345703 44.52148438 C-124.93057748 43.08991191 -123.05976907 41.6692606 -121.1875 40.25 C-120.63175293 39.82283691 -120.07600586 39.39567383 -119.50341797 38.95556641 C-92.44835695 18.26164148 -58.9474414 5.33389604 -25.1875 1.25 C-24.46361084 1.1571875 -23.73972168 1.064375 -22.99389648 0.96875 C-15.34519678 0.08441598 -7.6925463 0.00668503 0 0 Z " fill="#115740" transform="translate(255.1875,52.75)"/>
<path d="M0 0 C8.25 0 16.5 0 25 0 C25 11.22 25 22.44 25 34 C28.63 34.66 32.26 35.32 36 36 C38.78529353 36.96134198 41.34188022 37.9126081 44 39.125 C44.67933594 39.43066895 45.35867188 39.73633789 46.05859375 40.05126953 C62.41341776 47.68377838 72.32717201 59.53953687 79 76 C80.31548379 79.96913211 81.28293304 83.8830466 82 88 C82.12890625 88.71414062 82.2578125 89.42828125 82.390625 90.1640625 C83.19936436 95.50599877 83 100.51159083 83 106 C68.48 106 53.96 106 39 106 C38.01 99.07 38.01 99.07 37 92 C34.46921048 83.9389667 31.15941076 77.16539239 23.74609375 72.6171875 C15.62855607 68.89067742 7.04556202 68.64185462 -1.375 71.5625 C-7.52460221 74.36584996 -12.12805279 79.33796618 -14.5234375 85.73046875 C-16.3169159 94.27154213 -16.20146036 103.21736592 -11.63671875 110.80859375 C-1.89376535 123.85345499 15.16295901 129.88089952 29.6875 136.0625 C51.06437524 145.19266801 70.16806709 155.97587947 79.95703125 178.2265625 C82.85907427 185.94360574 83.33607783 192.4399752 83.3125 200.6875 C83.33666992 202.34942383 83.33666992 202.34942383 83.36132812 204.04492188 C83.37056132 219.84291603 78.73500681 233.40559048 67.6875 244.9375 C55.55961257 256.3218521 38.71626892 264 22 264 C22 274.56 22 285.12 22 296 C13.75 296 5.5 296 -3 296 C-3 285.77 -3 275.54 -3 265 C-7.62 264.34 -12.24 263.68 -17 263 C-34.80238088 257.98677504 -50.2609869 248.08106117 -60.24609375 232.24609375 C-67.54466085 218.7380553 -69 206.27663695 -69 191 C-54.15 191 -39.3 191 -24 191 C-23.505 197.435 -23.505 197.435 -23 204 C-20.13228966 213.98388044 -16.80229727 220.04612925 -7.8125 225.4375 C1.64629308 229.84215645 14.0762368 229.87702015 23.875 226.3125 C30.75868093 222.88261037 34.06271039 217.88247272 37 211 C39.47096146 203.58711562 38.38850944 196.20210958 35.171875 189.20703125 C28.00629341 175.71185259 10.36070707 170.22809743 -2.9375 164.5 C-24.82405206 155.05216527 -47.11983964 145.36426562 -57.3125 122.125 C-63.51391676 104.93137241 -63.02877903 84.35939809 -55.3125 67.8125 C-47.04781772 52.43776018 -33.83193976 41.92499275 -17.1171875 36.7421875 C-11.25293543 35.05731974 -6.16754024 34 0 34 C0 22.78 0 11.56 0 0 Z " fill="#FBFBFB" transform="translate(249,108)"/>
</svg>
